<?xml version="1.0" encoding="utf-8"?>
<!-- Generator: Adobe Illustrator 22.0.1, SVG Export Plug-In . SVG Version: 6.00 Build 0)  -->
<svg version="1.1" id="Layer_1" xmlns="http://www.w3.org/2000/svg" xmlns:xlink="http://www.w3.org/1999/xlink" x="0px" y="0px"
	 viewBox="0 0 460 100" style="enable-background:new 0 0 460 100;" xml:space="preserve">
<style type="text/css">
	.st0{fill:#FFFFFF;}
</style>
<title>5e Dungeons &amp;amp; Dragons logo</title>
<g id="D_D_Logos">
	<g id="Dungeons_Dragons">
		<path class="st0" d="M224,35.8c-0.4-2.8,0.6-5.5,2.5-7.5c2-2,4.7-3.3,8.6-3.1c6.3,0.3,9.3,4.6,9.3,9.3c-0.2,2.8-1.2,5.5-3,7.8
			l-0.3-0.3c-1.4-1.2-2.8-2.6-4-4c2.1-3.1,1.2-8-2.6-8c-2.4,0-4.4,2.5-3.6,5.6c-0.4,1.4-0.5,3-0.2,4.4c-2.1-1-3.6-2.9-4.2-5.1
			c-0.8,1.6-1,3.5-0.6,5.3C224.8,39,224.1,37.5,224,35.8 M225.6,43.4c0.3-1-1.6-2.6-2.4-2.9c1.3-0.1,2.6,0,3.9,0.4
			c-0.7-1.1-0.9-2.5-0.5-3.8c1.4,3.4,6.5,4,7.8,6.8c-0.4-1.4-1.4-2.7-2.7-3.4c-0.7-1.8-0.2-5.3,0.7-6.2c-0.3,4.9,6.7,7.7,8.2,11.3
			c-0.9-3.1-4.1-5-5.7-6.8c-0.4-1.3-0.3-2.8,0.4-4c-0.2,3.3,3.4,5.9,5.3,7.7c2.2,2.2,2.9,4.1,2.6,5.7c0.7,0.1,1.1,0.7,1.1,1.4
			c0.7-0.2,1.3-0.8,1.6-1.5c0.4,2.5-1.1,5-2.7,5.8c0.2-0.7,0.1-1.5-0.3-2.1c-0.8-0.8-2.8-0.8-3.5-0.8c0,0,0.9-1.3,0.5-1.9
			s-4.4-0.4-6.2,0.2c0.9,0,1.7,0.1,2.6,0.3c-0.3,0.4-1,2.2-0.5,2.7s1.1-0.4,1.1-0.4s-0.6,1.9-0.2,2.4s1.4,0.1,1.4,0.1
			c-0.6,1.5-2.9,2.6-4.6,2.6c0.8-0.4,1.4-1,1.7-1.8c-0.6,0.2-1.3,0.3-2,0.3c1-0.7,1.5-1.9,1.3-3.1c-0.5-2.2-3.6-2.5-5.2-1.4
			c0.6-1.5,1.7-2.7,3.2-3.4c-0.8-0.3-1.6-0.5-2.4-0.6c1.4-0.9,3.1-1.4,4.8-1.4c-2-0.5-5.5,0.1-7.1,2c0.8,0.1,1.6,0.2,2.4,0.4
			c-2.3,0.7-4.4,1.9-6.1,3.5c0.2-1.3,0.6-2.4,0.3-3.2c-0.4-1.1-1.8-1.5-4.4-1C221.7,45.5,225.3,44.4,225.6,43.4 M237.8,45.2
			c0.4,1.3,0.8,2.4,2.3,2.4C239.7,46.5,238.9,45.6,237.8,45.2 M261.9,43.5c-2.6,0-4.1,1.3-4.5,0.7c-0.5-0.8,1.8-1.8,1.8-1.8
			c-3.1,0.1-5.4,3.8-6.3,3.3c-0.6-0.3,0.8-2,0.8-2c-2.7,1.7-4.7,4.3-5.7,7.3c2.6-3.2,7.7-5.5,11-5c-5.8,0.3-10.8,5.4-13.2,8.8
			c0.5,0.1,0.9,0.4,1.3,0.7l2.2,1.8c1.2-2.7,2.8-5.3,4.7-7.6c2.1-2.4,5.7-2.6,7.6-1.2c1.2-1.1,5.5-2.2,7.7-1.5
			C267.4,44.9,264.7,43.7,261.9,43.5 M260.1,59c1.5,0.3,2.6,1.6,2.7,3.1c0,2.8-3.5,3.7-5.5,3.3c2.1-1.4,1.8-5.6-0.7-7
			c0.8,2.3-1.7,4.6-4.1,2.6c-1.4-1.1-4.5-3.8-5.9-4.9s-3.1-0.5-3.7-1s-0.3-2.1-1.3-2.7c-0.9-0.5-1.7-0.2-2.7-0.5
			c-0.9-0.2-1.5-1-1.4-1.9c-0.4,0.9-0.3,1.9,0.3,2.6c0.7,0.8,1.8,1.3,2.3,2.1c0.6,1.1-0.4,2.7,2.3,4.7c1.3,1,3.3,2.6,4.6,3.8
			c2.2,1.9,1,4.3,1.3,6.4c0.3,2,1.7,3.6,3.6,4.1c-1.4-1.5-1.4-3.7,0-5.2c0.2,2.9,2.1,5.3,4.9,6.1c3.5,0.9,7.3-1.1,8.1-2.5
			c-1.4,0.6-4-0.1-5-1c4.2,0.6,7.9-2.3,7.9-6C267.6,61.4,264.1,58.7,260.1,59 M242.2,60.4c-1.3,2.5-4.5,6-7.8,6
			c-5.8,0-8.6-8.3-1.8-14.9c-0.4-0.2-0.8-0.2-1.2-0.2c-1.3,0.1-2.4,0.7-3.3,1.6c0-1.4,0.4-2.7,1.2-3.8c-2.4,1-4.6,2.5-6.4,4.4
			c0-2.7,1-4.2,0.4-5c0,0-0.1-0.1-0.1-0.1c0,0-4.7,3.1-5.2,8.2c0.3-0.4,0.7-0.8,1.2-1.1c0.4-0.1,0.7,0,0.3,1.1
			c-0.1,0.4-3.2,8.8,2.9,14.6c0,0-0.7-1.7-0.3-2.2c0.2-0.3,0.4-0.3,0.8,0.2s0.5,0.7,0.8,1l0,0c0.5,0.6,1.1,1.1,1.7,1.6
			c2.1,1.5,4.5,2.3,7.1,2.3c7.8,0,11.8-5.6,13.9-10l-0.2-0.2c-1.1-1-2.8-2.4-4.1-3.4"/>
		<path class="st0" d="M146.6,37.5c-8.1,0-14,5.7-14,13.5s5.9,13.3,14,13.3s14.2-5.8,14.2-13.4S154.7,37.5,146.6,37.5 M146.5,43.8
			c4.2,0,6.9,2.7,6.9,7s-2.7,7.2-6.6,7.2c-4.1,0-6.7-2.8-6.7-7C140,46.6,142.5,43.8,146.5,43.8"/>
		<path class="st0" d="M21.8,39.4c-2-1-4.2-1.5-6.4-1.6l0,0h-5.2c-4.1,0-6.1-0.1-7.5-0.4c-0.8-0.2-1.6-0.6-2.4-1L0,36.2v0.4
			c0,0.1,0.3,2.9,3.6,5.4c0.6,0.5,1.1,0.9,1.1,2.6v15c0,1.6-0.3,2-1,2.5l-2.5,1.4l-0.6,0.3h13.6c3.8,0,6.2-0.6,8.7-2.4
			c1.1-0.7,2-1.6,2.8-2.5c1.8-2.3,2.7-5.2,2.7-8.1C28.6,46,26,41.6,21.8,39.4 M14.9,57.5H12V44.1h2.9c3.8,0,6,2.4,6,6.7
			S18.7,57.5,14.9,57.5"/>
		<path class="st0" d="M57.3,37.9l-0.6,0.3c0,0-1.4,0.9-2.3,1.4s-1.1,0.9-1.1,2.6v10.9c0.1,1.8-0.2,3.5-0.8,5.2
			c-1.5,3.7-5.4,6-10.3,6c-3.2,0.2-6.3-1-8.6-3.2c-0.8-0.7-1.4-1.6-1.8-2.6c-0.6-1.8-0.9-3.7-0.8-5.5V42.2c0-1.7-0.3-2-1.1-2.6
			s-2.3-1.4-2.3-1.4L27,37.9h11c0.4,0,0.7,0.1,1.1,0.3l0.2,0.1l-0.1,0.2c0,0-0.4,0.5-0.6,0.9c-0.2,0.3-0.3,0.7-0.3,1.1v13.2
			c0,2.9,1.3,4.3,4,4.3s3.9-1.4,3.9-4.2v-0.1l0,0V40.5c0-0.4-0.1-0.8-0.3-1.1c-0.2-0.3-0.6-0.9-0.6-0.9l-0.1-0.2l0.2-0.1
			c0.3-0.2,0.7-0.3,1.1-0.3L57.3,37.9z"/>
		<path class="st0" d="M208.8,56.3c-0.1,4.8-4.3,8-10.6,8c-0.5,0-1,0-1.4-0.1c-1.5-0.1-4.3-0.6-5.2-0.8s-1.2-0.3-1.2-0.3h-0.1
			l-0.5-0.2l-0.6-9.7l1.4,1l1.3,1l0.2,0.2c1.6,1.4,3.6,2.4,5.7,2.8c0.4,0,0.8,0,1.1,0c2.4,0,2.7-0.8,2.8-1.6
			c0.2-1.5-1.3-2.3-2.5-2.7l-0.5-0.1c-2.3-0.6-4.5-1.5-6.6-2.6c-2.1-1.3-3.3-3.7-3.1-6.2c0.4-5,3.7-7.7,9.5-7.7c0.5,0,1,0,1.5,0
			c1.6,0.2,3.2,0.4,4.7,0.8c0.4,0.1,0.8,0.2,1.2,0.3h0.1l0.5,0.2l0.4,7.7c-2.3-1.6-4.9-2.6-7.6-3h-0.1h-0.1h-0.6
			c-0.9-0.1-1.8,0.2-2.5,0.7c-0.2,0.2-0.3,0.5-0.3,0.8c0,1.1,1.6,1.5,4.1,2.1h0.1l1.1,0.3C206.3,48.6,209,51.6,208.8,56.3"/>
		<path class="st0" d="M131.6,55.1l-1.9,8.7h-21.5l0.6-0.3c0,0,1.7-1,2.4-1.4s1.1-0.8,1.1-2.5V42.2c0-1.7-0.3-2-1.1-2.6
			s-2.3-1.4-2.3-1.4l-0.6-0.3h20.8l0.8,8.2l-1.5-1.2c-0.8-0.6-1.8-0.9-2.8-0.8h-6.1v3.2h6.1c0.5,0.1,1.1,0,1.6-0.2
			c0.2-0.1,0.4-0.2,0.7-0.3l0.2-0.1v8.3l-0.3-0.4c-0.2-0.3-0.5-0.6-0.9-0.8c-0.6-0.2-1.3-0.3-2-0.2h-5.5v3.8h5.9
			c2.3,0,3.1-0.2,4-0.8C129.8,56.4,131.6,55.1,131.6,55.1"/>
		<path class="st0" d="M85,37.9l-0.7,0.3c0,0-1.6,0.8-2.5,1.4s-1.1,0.9-1.1,2.6v22.4L65,49.2v10.3c0,1.7,0.3,2,1.1,2.5
			s2.4,1.4,2.4,1.4l0.6,0.3H54.4l0.6-0.3c0,0,1.6-0.9,2.5-1.4s1.1-0.8,1.1-2.5V42.4c0-1.7-0.4-2.2-1.1-2.8s-2.1-1.4-2.1-1.4
			l-0.5-0.3h8.6l10.8,10.6v-6.3c0-1.7-0.3-2-1.1-2.6s-2.3-1.4-2.3-1.4l-0.6-0.3H85z"/>
		<path class="st0" d="M190.1,37.9l-0.7,0.3c-0.9,0.4-1.7,0.9-2.5,1.4c-0.8,0.5-1.1,0.9-1.1,2.6v22.4l-15.8-15.4v10.3
			c0,1.7,0.3,2,1.1,2.5s2.4,1.4,2.4,1.4l0.6,0.3h-14.7l0.6-0.3c0,0,1.6-0.9,2.5-1.4s1-0.8,1-2.5V42.4c0-1.7-0.4-2.2-1.1-2.8
			s-2.1-1.4-2.1-1.4l-0.5-0.3h8.6l10.9,10.6v-6.3c0-1.7-0.3-2-1.1-2.6s-2.2-1.4-2.2-1.4l-0.6-0.3H190.1z"/>
		<path class="st0" d="M108.2,62.3c0,0-0.4-0.5-0.6-0.9c-0.3-0.5-0.4-1.1-0.3-1.6v-7c0-1,0.1-1.3,0.3-1.6s0.6-0.9,0.6-0.9l0.1-0.2
			l-0.2-0.1c-0.3-0.2-0.7-0.3-1-0.3h-11l0.6,0.3l2.3,1.4c0.7,0.5,1.1,1,1.1,2.5v3.8c-0.9,0.3-1.8,0.4-2.7,0.4
			c-4.4,0-6.7-2.4-6.7-7.1c0-4.5,2.5-7.1,6.8-7.1c3.3,0,6.5,1.1,9,3.2V47l-0.8-7.5l-0.1-0.5l-0.6-0.1l-0.5-0.1
			c-1.5-0.4-3-0.7-4.6-0.8c-0.7-0.1-1.5-0.2-2.3-0.2h-0.4c-8.1,0-14,5.7-14,13.5s5.9,13.3,14.1,13.3c2,0,4-0.3,5.9-0.6l0.8-0.2h0.2
			c1-0.2,2-0.5,3-0.8l1.3-0.4L108.2,62.3z"/>
		<path class="st0" d="M294.6,39.4c-2-1-4.2-1.5-6.4-1.6l0,0H283c-4.1,0-6.1-0.1-7.5-0.4c-0.8-0.2-1.6-0.6-2.4-1l-0.3-0.2v0.4
			c0,0.1,0.3,2.9,3.6,5.4c0.6,0.5,1.1,0.9,1.1,2.6v15c0,1.6-0.3,2-1,2.5s-2.5,1.5-2.5,1.5l-0.6,0.3H287c3.8,0,6.2-0.6,8.7-2.4
			c1.1-0.7,2-1.6,2.8-2.5c1.8-2.3,2.7-5.2,2.7-8.1C301.4,46.1,298.8,41.7,294.6,39.4 M287.7,57.5h-2.9V44.1h2.9c3.8,0,6,2.4,6,6.7
			S291.5,57.5,287.7,57.5"/>
		<path class="st0" d="M444.3,47.2l-1.1-0.3h-0.1c-2.5-0.6-4.1-1-4.1-2.1c0-0.3,0.1-0.6,0.3-0.8c0.7-0.5,1.6-0.8,2.5-0.7h0.6h0.2
			c2.7,0.4,5.4,1.4,7.6,3l-0.4-7.7l-0.5-0.2h-0.1c0,0-0.3-0.1-1.2-0.3c-1.6-0.4-3.1-0.6-4.7-0.8c-0.5,0-1-0.1-1.5-0.1
			c-5.8,0-9.1,2.8-9.5,7.7c-0.2,2.5,1,4.9,3.1,6.2c2.1,1.1,4.3,2,6.6,2.6l0.5,0.1c1.3,0.4,2.7,1.2,2.5,2.7c-0.1,0.8-0.4,1.6-2.8,1.6
			c-0.3,0-0.7,0-1.1,0c-2.1-0.4-4.1-1.3-5.7-2.8l-0.2-0.2l-1.3-1l-1.4-1l0.5,9.7l0.5,0.2h0.1c0,0,0.3,0.1,1.2,0.3s3.7,0.7,5.2,0.8
			c0.5,0,1,0.1,1.4,0.1c6.3,0,10.5-3.1,10.6-8C452.3,51.7,449.7,48.6,444.3,47.2"/>
		<path class="st0" d="M390,37.5c-8.1,0-14,5.7-14,13.5s5.9,13.3,14,13.3s14.2-5.8,14.2-13.4S398.1,37.5,390,37.5 M390.1,58
			c-4.1,0-6.7-2.8-6.7-7s2.5-7.2,6.5-7.2c4.2,0,6.9,2.7,6.9,7S394,58,390.1,58"/>
		<path class="st0" d="M349.5,60.6c-0.2-0.3-0.4-0.6-0.5-1l0,0c-0.1-0.1-8.6-21.7-8.6-21.7h-10.2l1.8,1.7c0.4,0.4,0.4,0.5,0.4,0.7
			c0,0.1,0,0.2,0,0.3c0,0-7.8,18.8-7.9,18.9c-1.3-1.5-3.5-4.2-6.2-7.8c1-0.5,1.8-1.3,2.4-2.2c0.8-1.2,1.3-2.7,1.3-4.2
			c0.1-3.2-2-6.1-5.1-6.9c-1.5-0.4-3.1-0.6-4.6-0.5h-12.3l0.5,0.3l2.3,1.4c0.7,0.5,1.1,1,1.1,2.5v17.3c0,1.7-0.4,2-1.1,2.5
			s-3,1.8-3,1.8h15.2c-1.1-0.5-2.1-1.1-3.1-1.8c-0.8-0.6-1.1-0.9-1.1-2.5V54c0.1,0,0.3,0.1,0.4,0.1c0.7,0.5,1.3,1.1,1.8,1.8l0,0
			l6.5,7.9h14.2c0,0-1.4-1.1-2-1.7s-0.6-0.8-0.2-1.7c0.1-0.2,0.2-0.6,0.4-1.2h9.4c0.2,0.5,0.3,1,0.4,1.2c0.3,0.6,0.2,1.3-0.4,1.7
			c-0.5,0.5-1.7,1.7-1.7,1.7h13.6l-2.2-1.7C350.4,61.7,349.9,61.2,349.5,60.6 M311.5,49.1h-0.9v-6h0.9c2.5,0,3.4,0.9,3.4,2.2
			C314.9,48.8,313.2,49.2,311.5,49.1 M334.2,53.2l2.5-6.4l2.3,6.3L334.2,53.2z"/>
		<path class="st0" d="M433.5,37.9h-14.7l0.6,0.3c0,0,1.4,0.9,2.3,1.4s1.1,0.9,1.1,2.6v6.3l-10.8-10.6h-8.6l0.5,0.3
			c0,0,1.3,0.9,2.1,1.4s1.1,1.1,1.1,2.8v17.1c0,1.7-0.3,2-1.1,2.5s-2.4,1.4-2.5,1.4l-0.6,0.3h14.7l-0.6-0.3c0,0-1.6-0.9-2.4-1.4
			s-1.1-0.8-1.1-2.5V49.2l15.8,15.4V42.2c0-1.7,0.3-2,1.1-2.6s2.5-1.4,2.5-1.4L433.5,37.9z"/>
		<path class="st0" d="M374.5,62.1c0,0-0.4-0.5-0.6-0.9s-0.3-0.6-0.3-1.6v-7c0-1.1,0.1-1.3,0.3-1.6s0.6-0.9,0.6-0.9l0.1-0.2
			l-0.2-0.1c-0.3-0.2-0.7-0.3-1-0.3h-11l0.5,0.3l2.4,1.5c0.7,0.5,1.1,1,1.1,2.5v3.8c-0.9,0.3-1.8,0.4-2.7,0.4
			c-4.5,0-6.7-2.4-6.7-7.1c0-4.5,2.5-7.1,6.8-7.1c3.3,0,6.5,1.1,9,3.2v-0.2l-0.8-7.5l-0.1-0.5l-0.5-0.1l-0.5-0.1
			c-1.5-0.4-3-0.7-4.6-0.8c-0.8-0.1-1.5-0.2-2.3-0.2h-0.4c-8.1,0-14,5.7-14,13.5s5.9,13.3,14.1,13.3c2,0,4-0.3,5.9-0.6l0.8-0.2h0.2
			c1-0.2,2-0.5,3-0.8l1.3-0.4L374.5,62.1z"/>
		<path class="st0" d="M460,41.1c0,1.8-1.5,3.2-3.2,3.2c-1.8,0-3.2-1.5-3.2-3.2c0-1.8,1.4-3.2,3.2-3.2c1.7-0.1,3.1,1.2,3.2,2.9
			C460,40.9,460,41,460,41.1 M456.8,43.7c1.4,0.1,2.6-1,2.7-2.4c0.1-1.4-1-2.6-2.4-2.7c-1.4-0.1-2.6,1-2.7,2.4c0,0,0,0.1,0,0.1
			c-0.1,1.3,0.9,2.5,2.2,2.6C456.6,43.7,456.7,43.7,456.8,43.7 M457.6,41.5c1.2-0.3,1-2.1-0.5-2.1h-1.6v3.3h0.9v-1h0.3l0.8,1h0.9
			v-0.2L457.6,41.5z M457.1,40.2c0.2,0,0.4,0.1,0.4,0.3c0,0.2-0.1,0.4-0.3,0.4c0,0-0.1,0-0.1,0h-0.7v-0.8H457.1z"/>
	</g>
</g>
</svg>
